<svg xmlns="http://www.w3.org/2000/svg" width="580.784" height="178.625" viewBox="0 0 580.784 178.625">
  <defs>
    <style>
      .cls-1 {
        fill: #fff;
        fill-rule: evenodd;
      }
    </style>
  </defs>
  <path class="cls-1" d="M654.446,311.884H600.089l-22.8,62.4-22.8-62.4H500.141V441.949H539.5V363.754l29.03,78.195h17.535l29.03-78.195v78.195h39.355V311.884Zm109.3,0H714.258L666.33,441.949h44.616l4.676-15.21h46.759l4.676,15.21h44.616Zm-37.6,80.535L739,350.494l12.859,41.925H726.142ZM862.911,401h30q22.014,0,34.388-12.772t12.371-31.688q0-19.108-12.371-31.882t-34.388-12.773H823.556V441.949h39.355V401Zm0-34.32V346.2H887.85a13.362,13.362,0,0,1,8.572,2.633q3.311,2.632,3.312,7.7a9.035,9.035,0,0,1-3.312,7.508,13.362,13.362,0,0,1-8.572,2.632H862.911Zm181.289,74.2a52.56,52.56,0,0,0,17.24-9.263,74.7,74.7,0,0,0,11.69-11.992,63.54,63.54,0,0,0,7.79-13.358l-33.9-15.6a27.866,27.866,0,0,1-9.54,13.358,24.521,24.521,0,0,1-15.59,5.557q-14.025,0-22.795-9.36t-8.767-23.2q0-13.843,8.767-23.2t22.795-9.36a24.522,24.522,0,0,1,15.59,5.558,27.877,27.877,0,0,1,9.54,13.357l33.9-15.795a67.482,67.482,0,0,0-21.33-26.91q-14.325-10.918-37.7-10.92-30.975,0-51.24,18.72t-20.262,48.555q0,29.643,20.359,48.458t51.143,18.817A70.191,70.191,0,0,0,1044.2,440.877ZM519.976,266.052H500.79v24.679h1.183V267.162h16.82v23.569h1.183V266.052Zm12.107,24.087a13.525,13.525,0,0,0,2.421-3.4l11.423-20.683h-1.368l-9.131,16.576L526.3,266.052H524.93l9.8,17.8-1.257,2.331a13.747,13.747,0,0,1-2.089,3.09,2.994,2.994,0,0,1-2.162.8,4.152,4.152,0,0,1-3.512-2.035l-0.961.777a5.083,5.083,0,0,0,4.473,2.368A4.07,4.07,0,0,0,532.083,290.139Zm37.984-24.087h-1.183v11.433H552.063V266.052H550.88v24.679h1.183V278.6h16.821v12.136h1.183V266.052Zm12.31,11.8,10.72-11.8h-1.589L578.68,280.3V266.052H577.5v24.679h1.183v-8.917l2.957-3.219,10.98,12.136h1.589Zm24.805-10.693h8.355v-1.11H597.681v1.11H606v23.569h1.183V267.162Zm43.658-1.11h-1.183v11.433h-16.82V266.052h-1.183v24.679h1.183V278.6h16.82v12.136h1.183V266.052Zm16.635,0h-1.4l-10.277,24.679h1.367l2.736-6.623h13.752l2.736,6.623h1.368ZM660.341,283l6.432-15.577L673.205,283H660.341Zm35.192,6.216a6.367,6.367,0,0,0,2.256-5.032,5.849,5.849,0,0,0-1.017-3.422,6.162,6.162,0,0,0-2.237-2.072,6.75,6.75,0,0,0-2.366-.722,7.413,7.413,0,0,0,3.586-1.757,5.088,5.088,0,0,0,1.664-4.089,5.532,5.532,0,0,0-2.348-4.717,9.214,9.214,0,0,0-5.6-1.721,10.107,10.107,0,0,0-8.133,3.7l0.924,0.74a10.334,10.334,0,0,1,3.216-2.516,9.166,9.166,0,0,1,3.993-.814,7.734,7.734,0,0,1,4.732,1.425,4.6,4.6,0,0,1,1.922,3.9,4.5,4.5,0,0,1-1.922,3.959,8.11,8.11,0,0,1-4.732,1.332H684.3v1.11h5.176a8.507,8.507,0,0,1,5.046,1.406,4.876,4.876,0,0,1,1.978,4.255,5.291,5.291,0,0,1-1.9,4.311,7.913,7.913,0,0,1-5.194,1.572,9.7,9.7,0,0,1-4.566-1.017,7.905,7.905,0,0,1-3.013-2.646l-1.035.629a8.546,8.546,0,0,0,3.383,2.979,11.082,11.082,0,0,0,5.194,1.165A9.086,9.086,0,0,0,695.533,289.214Zm28.059-23.162h-1.183v11.433h-16.82V266.052h-1.183v24.679h1.183V278.6h16.82v12.136h1.183V266.052Zm16.635,0h-1.4l-10.277,24.679h1.368l2.736-6.623H746.4l2.735,6.623H750.5ZM733.092,283l6.433-15.577L745.957,283H733.092Zm21.552-16.946v6.216a7.7,7.7,0,0,0,2.089,5.643,8.038,8.038,0,0,0,6.007,2.127,34.316,34.316,0,0,0,6.469-.74v11.433h1.183V266.052h-1.183v12.136a28.089,28.089,0,0,1-6.469.74,7.053,7.053,0,0,1-5.12-1.739,6.485,6.485,0,0,1-1.793-4.884v-6.253h-1.183Zm38.261,23.569h-13.9V278.6h13.641v-1.11H779.005V267.162h13.9v-1.11H777.822v24.679h15.083v-1.11Zm25.656-23.569h-1.183v11.433H800.557V266.052h-1.183v24.679h1.183V278.6h16.821v12.136h1.183V266.052Zm25.248,1.924v22.755h1.183V266.052h-1.183l-16.635,22.533V266.052h-1.183v24.679h1.183Zm16.413,12.1h5.915v10.656h1.183V266.052h-8.5a7.491,7.491,0,0,0-5.213,1.869,7.376,7.376,0,0,0,.019,10.267,7.459,7.459,0,0,0,5.194,1.887L851.2,290.731h1.516Zm-5.748-2.775a5.8,5.8,0,0,1-1.645-4.255,5.736,5.736,0,0,1,1.645-4.236,5.87,5.87,0,0,1,4.344-1.647h7.319v11.8h-7.319A5.832,5.832,0,0,1,854.474,277.3Zm22.088-3.478a1.2,1.2,0,0,0-.351-0.851,1.205,1.205,0,0,0-1.738,0,1.2,1.2,0,0,0-.351.851,1.109,1.109,0,0,0,.37.833,1.2,1.2,0,0,0,1.7,0A1.113,1.113,0,0,0,876.562,273.822Zm0,16.021a1.114,1.114,0,0,0-.37-0.832,1.2,1.2,0,0,0-1.7,0,1.111,1.111,0,0,0-.37.832,1.22,1.22,0,1,0,2.44,0h0ZM917.58,266.06H897.026v24.679h3.068V268.8h14.418v21.941h3.068V266.06Zm17.855,0h-3.808l-9.907,24.679h3.512l2.181-5.476h12.273l2.181,5.476h3.512ZM928.3,282.525l5.25-13.283,5.212,13.283H928.3Zm41.773-16.465h-3.068v10.619H952.588V266.06h-3.069v24.679h3.069V279.417h14.417v11.322h3.068V266.06Zm15.859,2.738h7.837V266.06H975.064V268.8h7.8v21.941h3.068V268.8ZM1014.91,288h-13.08v-8.51h12.83v-2.738h-12.83V268.8h13.08V266.06H998.76v24.679h16.15V288Zm25.86-.444a13.921,13.921,0,0,0,0-18.278,12.552,12.552,0,0,0-17.65,0,13.983,13.983,0,0,0,0,18.278A12.552,12.552,0,0,0,1040.77,287.557Zm-15.39-1.942a11.709,11.709,0,0,1,0-14.412,9.081,9.081,0,0,1,13.14,0,11.672,11.672,0,0,1,0,14.412A9.041,9.041,0,0,1,1025.38,285.615Zm45.1-19.555h-3.07v10.619h-14.42V266.06h-3.07v24.679h3.07V279.417h14.42v11.322h3.07V266.06Zm9.63,21.738a2.158,2.158,0,0,0-1.65-.759,1.885,1.885,0,0,0-1.39.592,1.96,1.96,0,0,0-.57,1.406,1.918,1.918,0,0,0,.5,1.351,1.669,1.669,0,0,0,1.28.536,1.225,1.225,0,0,0,.51-0.074,4.249,4.249,0,0,1-.79,1.869,5.748,5.748,0,0,1-1.61,1.572l1.37,1.147a7.639,7.639,0,0,0,2.18-2.46,6.219,6.219,0,0,0,.85-3.127A2.979,2.979,0,0,0,1080.11,287.8Z" transform="translate(-500.156 -265.656)"/>
</svg>
