<svg xmlns="http://www.w3.org/2000/svg" width="469.562" height="151.343" viewBox="0 0 469.562 151.343">
  <path d="M269.186,310.417H225.422l-18.353,50.24-18.353-50.24H144.951V415.136h31.686V352.179l23.373,62.957h14.117L237.5,352.179v62.957h31.686V310.417Zm88,0H317.342L278.754,415.136h35.922l3.764-12.246h37.648l3.764,12.246h35.922Zm-30.275,64.841L337.264,341.5l10.353,33.755H326.911Zm110.117,6.908h24.156q17.725,0,27.687-10.284t9.961-25.512q0-15.385-9.961-25.67t-27.687-10.283H405.341V415.136h31.687v-32.97Zm0-27.632V338.049h20.078a10.758,10.758,0,0,1,6.9,2.119,7.453,7.453,0,0,1,2.667,6.2,7.273,7.273,0,0,1-2.667,6.044,10.758,10.758,0,0,1-6.9,2.12H437.028Zm145.959,59.738a42.3,42.3,0,0,0,13.882-7.457,60.191,60.191,0,0,0,9.412-9.656,51.229,51.229,0,0,0,6.274-10.754l-27.294-12.56a22.408,22.408,0,0,1-7.686,10.754,19.724,19.724,0,0,1-12.549,4.475q-11.295,0-18.353-7.536a28.254,28.254,0,0,1,0-37.366q7.059-7.536,18.353-7.536a19.723,19.723,0,0,1,12.549,4.474,22.42,22.42,0,0,1,7.686,10.755l27.294-12.717a54.4,54.4,0,0,0-17.176-21.666q-11.529-8.792-30.353-8.792-24.942,0-41.255,15.072t-16.314,39.093q0,23.866,16.392,39.014t41.177,15.151A56.5,56.5,0,0,0,582.987,414.272ZM161.068,266H145.511v20.01h0.96V266.9h13.638v19.11h0.959V266Zm9.816,19.53a10.942,10.942,0,0,0,1.963-2.76L182.109,266H181l-7.4,13.44-7.4-13.44h-1.109l7.943,14.43-1.019,1.89a11.154,11.154,0,0,1-1.694,2.5,2.426,2.426,0,0,1-1.753.645,3.37,3.37,0,0,1-2.848-1.65l-0.779.63a4.122,4.122,0,0,0,3.627,1.92A3.3,3.3,0,0,0,170.884,285.534Zm30.8-19.53h-0.96v9.27H187.084V266h-0.959v20.01h0.959v-9.84h13.638v9.84h0.96V266Zm9.981,9.57,8.692-9.57h-1.289l-10.4,11.55V266h-0.959v20.01h0.959v-7.23l2.4-2.61,8.9,9.84h1.289Zm20.112-8.67h6.774V266H224.072v0.9h6.744v19.11h0.959V266.9Zm35.4-.9h-0.959v9.27H252.576V266h-0.959v20.01h0.959v-9.84h13.639v9.84h0.959V266Zm13.488,0h-1.139l-8.333,20.01H272.3l2.218-5.37h11.15l2.218,5.37h1.109Zm-5.785,13.74,5.215-12.63,5.216,12.63H274.877Zm28.534,5.04a5.161,5.161,0,0,0,1.829-4.08,4.743,4.743,0,0,0-.824-2.775,5,5,0,0,0-1.814-1.68,5.472,5.472,0,0,0-1.918-.585,6.013,6.013,0,0,0,2.907-1.425,4.124,4.124,0,0,0,1.349-3.315,4.488,4.488,0,0,0-1.9-3.825A7.472,7.472,0,0,0,298.5,265.7a8.2,8.2,0,0,0-6.595,3l0.75,0.6a8.378,8.378,0,0,1,2.608-2.04,7.431,7.431,0,0,1,3.237-.66,6.27,6.27,0,0,1,3.836,1.155,3.727,3.727,0,0,1,1.559,3.165,3.649,3.649,0,0,1-1.559,3.21,6.572,6.572,0,0,1-3.836,1.08h-4.2v0.9h4.2a6.894,6.894,0,0,1,4.091,1.14,3.953,3.953,0,0,1,1.6,3.45,4.289,4.289,0,0,1-1.544,3.5,6.411,6.411,0,0,1-4.211,1.275,7.854,7.854,0,0,1-3.7-.825,6.4,6.4,0,0,1-2.443-2.145l-0.839.51a6.929,6.929,0,0,0,2.742,2.415,8.988,8.988,0,0,0,4.212.945A7.364,7.364,0,0,0,303.411,284.784ZM326.161,266H325.2v9.27H311.564V266h-0.959v20.01h0.959v-9.84H325.2v9.84h0.959V266Zm13.488,0H338.51l-8.332,20.01h1.109l2.218-5.37h11.15l2.218,5.37h1.109Zm-5.785,13.74,5.216-12.63,5.215,12.63H333.864ZM351.339,266v5.04a6.246,6.246,0,0,0,1.693,4.575,6.519,6.519,0,0,0,4.871,1.725,27.8,27.8,0,0,0,5.246-.6v9.27h0.959V266h-0.959v9.84a22.756,22.756,0,0,1-5.246.6,5.716,5.716,0,0,1-4.151-1.41,5.258,5.258,0,0,1-1.454-3.96V266h-0.959Zm31.022,19.11h-11.27v-8.94h11.061v-0.9H371.091V266.9h11.27V266H370.132v20.01h12.229v-0.9Zm20.8-19.11H402.2v9.27H388.566V266h-0.959v20.01h0.959v-9.84H402.2v9.84h0.959V266Zm20.472,1.56v18.45h0.959V266h-0.959l-13.488,18.27V266h-0.959v20.01h0.959Zm13.308,9.81h4.8v8.64H442.7V266H435.8a6.073,6.073,0,0,0-4.226,1.515,5.98,5.98,0,0,0,.015,8.325,6.045,6.045,0,0,0,4.211,1.53l-6.175,8.64h1.229Zm-4.661-2.25a4.7,4.7,0,0,1-1.334-3.45,4.654,4.654,0,0,1,1.334-3.435A4.762,4.762,0,0,1,435.8,266.9h5.935v9.57H435.8A4.729,4.729,0,0,1,432.282,275.124Zm17.909-2.82a0.974,0.974,0,0,0-.285-0.69,0.976,0.976,0,0,0-1.408,0,0.974,0.974,0,0,0-.285.69,0.9,0.9,0,0,0,.3.675,0.975,0.975,0,0,0,1.378,0A0.9,0.9,0,0,0,450.191,272.3Zm0,12.99a0.9,0.9,0,0,0-.3-0.675,0.975,0.975,0,0,0-1.378,0,0.9,0.9,0,0,0-.3.675,0.989,0.989,0,1,0,1.978,0h0Zm31.979-19.283H465.5v20.01h2.488v-17.79h11.69v17.79h2.488v-20.01Zm14.477,0h-3.088l-8.033,20.01h2.848l1.768-4.44h9.952l1.768,4.44h2.848Zm-5.785,13.35,4.256-10.77,4.226,10.77h-8.482Zm33.87-13.35h-2.488v8.61h-11.69v-8.61h-2.487v20.01h2.487v-9.18h11.69v9.18h2.488v-20.01Zm12.858,2.22h6.355v-2.22H528.778v2.22H535.1v17.79h2.487v-17.79Zm23.5,15.57H550.479v-6.9h10.4v-2.22h-10.4v-6.45H561.09v-2.22h-13.1v20.01h13.1V283.8Zm20.966-.36a11.287,11.287,0,0,0,0-14.82,10.18,10.18,0,0,0-14.313,0,11.336,11.336,0,0,0,0,14.82A10.18,10.18,0,0,0,582.056,283.441Zm-12.484-1.575a9.5,9.5,0,0,1,0-11.685,7.365,7.365,0,0,1,10.656,0,9.448,9.448,0,0,1,0,11.685A7.332,7.332,0,0,1,569.572,281.866Zm36.568-15.855h-2.488v8.61h-11.69v-8.61h-2.488v20.01h2.488v-9.18h11.69v9.18h2.488v-20.01Zm7.808,17.625a1.736,1.736,0,0,0-1.334-.615,1.507,1.507,0,0,0-1.124.48,1.583,1.583,0,0,0-.465,1.14,1.544,1.544,0,0,0,.4,1.095,1.353,1.353,0,0,0,1.034.435,1.048,1.048,0,0,0,.42-0.06,3.437,3.437,0,0,1-.645,1.515,4.67,4.67,0,0,1-1.3,1.275l1.109,0.93a6.207,6.207,0,0,0,1.769-2,5.075,5.075,0,0,0,.689-2.535A2.4,2.4,0,0,0,613.948,283.636Z" transform="translate(-144.938 -265.688)"/>
</svg>
