<svg xmlns="http://www.w3.org/2000/svg" width="208.25" height="74.906" viewBox="0 0 208.25 74.906">
  <defs>
    <style>
      .cls-1 {
        fill: #fff;
        fill-rule: evenodd;
      }
    </style>
  </defs>
  <path class="cls-1" d="M111.054,174.509H91.583l-8.165,22.4-8.165-22.4H55.783V221.2h14.1v-28.07l10.4,28.07h6.281l10.4-28.07V221.2h14.1v-46.69Zm39.15,0H132.478L115.31,221.2h15.982l1.675-5.46h16.748l1.675,5.46h15.982Zm-13.469,28.91,4.606-15.05,4.606,15.05h-9.212Zm48.99,3.08h10.747q7.886,0,12.318-4.585a16.906,16.906,0,0,0,0-22.82q-4.432-4.584-12.318-4.585H171.628V221.2h14.1V206.5Zm0-12.32v-7.35h8.933a4.777,4.777,0,0,1,3.07.945,3.325,3.325,0,0,1,1.187,2.765,3.245,3.245,0,0,1-1.187,2.7,4.777,4.777,0,0,1-3.07.945h-8.933Zm64.936,26.635a18.814,18.814,0,0,0,6.176-3.325,26.778,26.778,0,0,0,4.187-4.305,22.849,22.849,0,0,0,2.792-4.795l-12.143-5.6a9.991,9.991,0,0,1-3.42,4.8,8.762,8.762,0,0,1-5.583,2,10.666,10.666,0,0,1-8.165-3.36,12.619,12.619,0,0,1,0-16.66,10.666,10.666,0,0,1,8.165-3.36,8.762,8.762,0,0,1,5.583,1.995,10,10,0,0,1,3.42,4.8l12.143-5.67a24.245,24.245,0,0,0-7.642-9.66q-5.128-3.919-13.5-3.92-11.1,0-18.354,6.72t-7.258,17.43q0,10.641,7.293,17.395t18.319,6.755A25.086,25.086,0,0,0,250.661,220.814ZM62.926,147.267H56.2v8.671h0.415v-8.281h5.9v8.281h0.415v-8.671Zm4.244,8.463a4.754,4.754,0,0,0,.849-1.2l4-7.267H71.545l-3.2,5.824-3.2-5.824h-0.48L68.1,153.52l-0.441.819a4.84,4.84,0,0,1-.732,1.085,1.048,1.048,0,0,1-.758.28,1.455,1.455,0,0,1-1.231-.715l-0.337.273a1.781,1.781,0,0,0,1.568.832A1.428,1.428,0,0,0,67.171,155.73Zm13.317-8.463H80.073v4.017h-5.9v-4.017H73.761v8.671h0.415v-4.264h5.9v4.264h0.415v-8.671Zm4.316,4.147,3.759-4.147H88l-4.5,5v-5H83.092v8.671h0.415v-3.133l1.037-1.131,3.849,4.264H88.95Zm8.7-3.757h2.929v-0.39h-6.26v0.39h2.916v8.281H93.5v-8.281Zm15.306-.39h-0.414v4.017h-5.9v-4.017h-0.415v8.671h0.415v-4.264h5.9v4.264h0.414v-8.671Zm5.833,0h-0.493l-3.6,8.671h0.48l0.959-2.327H116.8l0.959,2.327h0.48Zm-2.5,5.954,2.255-5.473,2.255,5.473h-4.51Zm12.338,2.184a2.239,2.239,0,0,0,.791-1.768,2.064,2.064,0,0,0-.356-1.2,2.163,2.163,0,0,0-.785-0.728,2.357,2.357,0,0,0-.829-0.253,2.6,2.6,0,0,0,1.257-.618,1.787,1.787,0,0,0,.583-1.436,1.945,1.945,0,0,0-.823-1.658,3.223,3.223,0,0,0-1.963-.6,3.537,3.537,0,0,0-2.851,1.3l0.324,0.26a3.623,3.623,0,0,1,1.127-.884,3.2,3.2,0,0,1,1.4-.286,2.712,2.712,0,0,1,1.659.5,1.617,1.617,0,0,1,.674,1.372,1.584,1.584,0,0,1-.674,1.391,2.841,2.841,0,0,1-1.659.468h-1.815v0.39h1.815a2.978,2.978,0,0,1,1.769.494,1.714,1.714,0,0,1,.693,1.5,1.859,1.859,0,0,1-.667,1.514,2.767,2.767,0,0,1-1.821.553,3.388,3.388,0,0,1-1.6-.358,2.781,2.781,0,0,1-1.056-.929l-0.363.221a3,3,0,0,0,1.186,1.046,3.88,3.88,0,0,0,1.821.41A3.183,3.183,0,0,0,124.474,155.405Zm9.837-8.138H133.9v4.017H128v-4.017h-0.415v8.671H128v-4.264h5.9v4.264h0.414v-8.671Zm5.832,0h-0.492l-3.6,8.671h0.479l0.959-2.327h4.822l0.959,2.327h0.479Zm-2.5,5.954,2.255-5.473,2.255,5.473h-4.51Zm7.556-5.954v2.184a2.71,2.71,0,0,0,.732,1.982,2.813,2.813,0,0,0,2.106.748,12.047,12.047,0,0,0,2.268-.26v4.017h0.415v-8.671H150.3v4.264a9.853,9.853,0,0,1-2.268.26,2.471,2.471,0,0,1-1.795-.611,2.282,2.282,0,0,1-.629-1.716v-2.2H145.2Zm13.414,8.281h-4.873v-3.874h4.782v-0.39h-4.782v-3.627h4.873v-0.39h-5.288v8.671h5.288v-0.39Zm8.994-8.281h-0.415v4.017h-5.9v-4.017H160.88v8.671h0.414v-4.264h5.9v4.264h0.415v-8.671Zm8.852,0.676v7.995h0.415v-8.671h-0.415l-5.832,7.917v-7.917h-0.415v8.671h0.415Zm5.754,4.251h2.074v3.744H184.7v-8.671H181.72a2.625,2.625,0,0,0-1.828.656,2.6,2.6,0,0,0,.007,3.608,2.611,2.611,0,0,0,1.821.663l-2.67,3.744h0.531Zm-2.015-.975a2.038,2.038,0,0,1-.577-1.5,2.017,2.017,0,0,1,.577-1.489,2.057,2.057,0,0,1,1.523-.578h2.566V151.8H181.72A2.042,2.042,0,0,1,180.2,151.219ZM187.941,150a0.422,0.422,0,0,0-.123-0.3,0.423,0.423,0,0,0-.61,0,0.422,0.422,0,0,0-.123.3,0.391,0.391,0,0,0,.13.292,0.42,0.42,0,0,0,.6,0A0.391,0.391,0,0,0,187.941,150Zm0,5.629a0.394,0.394,0,0,0-.13-0.293,0.422,0.422,0,0,0-.6,0,0.394,0.394,0,0,0-.13.293,0.428,0.428,0,1,0,.856,0h0Zm18.864-8.353H199.6v8.671h1.076v-7.709h5.054v7.709h1.076v-8.671Zm6.26,0H211.73l-3.474,8.671h1.232l0.764-1.924h4.3l0.765,1.924h1.231Zm-2.5,5.785,1.841-4.667,1.827,4.667h-3.668Zm14.646-5.785h-1.076V151h-5.055v-3.731H218v8.671h1.075v-3.978h5.055v3.978h1.076v-8.671Zm5.56,0.962h2.747v-0.962h-6.558v0.962h2.735v7.709h1.076v-7.709Zm10.16,6.747h-4.588v-2.99h4.5V151.03h-4.5v-2.795h4.588v-0.962h-5.663v8.671h5.663v-0.962Zm9.066-.156a4.9,4.9,0,0,0,0-6.422,4.4,4.4,0,0,0-6.189,0,4.921,4.921,0,0,0,0,6.422A4.4,4.4,0,0,0,250,154.826Zm-5.4-.683a4.126,4.126,0,0,1,0-5.063,3.179,3.179,0,0,1,4.607,0,4.1,4.1,0,0,1,0,5.063A3.164,3.164,0,0,1,244.6,154.143Zm15.812-6.87h-1.076V151h-5.055v-3.731H253.2v8.671h1.075v-3.978h5.055v3.978h1.076v-8.671Zm3.376,7.637a0.751,0.751,0,0,0-.577-0.266,0.65,0.65,0,0,0-.486.208,0.685,0.685,0,0,0-.2.494,0.672,0.672,0,0,0,.175.474,0.583,0.583,0,0,0,.447.189,0.452,0.452,0,0,0,.182-0.026,1.49,1.49,0,0,1-.279.656,2.015,2.015,0,0,1-.564.553l0.48,0.4a2.7,2.7,0,0,0,.765-0.865,2.206,2.206,0,0,0,.3-1.1A1.039,1.039,0,0,0,263.785,154.91Z" transform="translate(-55.781 -147.125)"/>
</svg>
