<svg xmlns="http://www.w3.org/2000/svg" viewBox="0 0 59.2 45.1">
  <defs><style>.cls-1{fill:#e12457;}</style>
</defs>
  <path class="cls-1" d="M2.5,41.6a8.27,8.27,0,0,0-2.5.2l1.2,3.1c0,.1,4,.2,5.3.2H48.3c1.4,0,5.3-.1,5.3-.2l1.2-3.1a8.27,8.27,0,0,0-2.5-.2Z"/>
  <path class="cls-1" d="M47.6,5.8h-.3l.3-4A1.79,1.79,0,0,0,45.8,0H31.5V19l5.8,1.9L33.6,32,22.5,28.3l3.7-11.2,4.6,1.5V0H9.1A1.79,1.79,0,0,0,7.3,1.8l3,36.7a1.79,1.79,0,0,0,1.8,1.8H42.8a1.79,1.79,0,0,0,1.8-1.8l.8-9.7a15,15,0,0,0,2.2.2,11.6,11.6,0,1,0,0-23.2Zm5.87,16.44a8.35,8.35,0,0,1-1,1A7.61,7.61,0,0,1,47.6,25a5.84,5.84,0,0,1-1.9-.2l1.2-15h.7a7.61,7.61,0,0,1,5.87,12.44Z"/>
</svg>
