<svg xmlns="http://www.w3.org/2000/svg" width="15" height="8" viewBox="0 0 15 8">
  <defs>
    <style>
      .cls-1 {
        fill: #fff;
        fill-rule: evenodd;
      }
    </style>
  </defs>
  <path class="cls-1" d="M295.809,4201.68l-6.115,6.03a1,1,0,0,1-1.411,0,0.974,0.974,0,0,1,0-1.39l6.115-6.04a1.016,1.016,0,0,1,1.411,0A0.986,0.986,0,0,1,295.809,4201.68Zm-0.5.05,6.006,5.92a0.983,0.983,0,0,0,1.4,0,0.965,0.965,0,0,0,0-1.38l-6-5.93a1,1,0,0,0-1.4,0A0.978,0.978,0,0,0,295.313,4201.73Z" transform="translate(-288 -4200)"/>
</svg>
