<svg xmlns="http://www.w3.org/2000/svg" viewBox="0 0 34 48">
  <defs>
    <style>.cls-1{fill:#e12457;}</style>
  </defs>
  <path class="cls-1" d="M31.81,41.3H23a13.57,13.57,0,0,0,5.87-20.77,6.07,6.07,0,0,0,.54-2.48,6,6,0,0,0-5.43-6l1.55-2.53a2.18,2.18,0,0,0-.68-3l2.87-4.68L24.56,0,21.69,4.68a2.19,2.19,0,0,0-3,.74L9.12,21.08l-1.68-1L5.05,23.94l10.12,6.21,2.39-3.89-1.69-1,2.44-4A6,6,0,0,0,23.37,24a6.15,6.15,0,0,0,1.43-.18A8.36,8.36,0,0,1,14.09,36.09h2.27V32.86H0v3.23H6.58A13.66,13.66,0,0,0,13,41.3h-10A2.19,2.19,0,0,0,.76,43.49v2.33A2.19,2.19,0,0,0,2.94,48H31.81A2.19,2.19,0,0,0,34,45.82V43.48A2.19,2.19,0,0,0,31.81,41.3Z"/>
</svg>
