<svg xmlns="http://www.w3.org/2000/svg" width="18.156" height="17.437" viewBox="0 0 18.156 17.437">
  <defs>
    <style>
      .cls-1 {
        fill: #fff;
        fill-rule: evenodd;
      }
    </style>
  </defs>
  <path id="Прямоугольник_скругл._углы_1_копия_4" data-name="Прямоугольник, скругл. углы 1 копия 4" class="cls-1" d="M160.281,530.258l7.978-7.978a0.787,0.787,0,0,1,1.113,1.113l-7.978,7.978A0.787,0.787,0,0,1,160.281,530.258Zm0.39-.038-7.892-7.893a0.781,0.781,0,0,0-1.1,1.1l7.893,7.893A0.78,0.78,0,0,0,160.671,530.22Zm-0.39-7.828,7.978-7.979a0.787,0.787,0,1,1,1.113,1.113l-7.978,7.979A0.787,0.787,0,0,1,160.281,522.392Z" transform="translate(-151.469 -514.188)"/>
</svg>
