<svg xmlns="http://www.w3.org/2000/svg" viewBox="0 0 84 60"><defs><style>.cls-1{fill:#e12457;}</style></defs><title>icon-helmet</title><g id="Слой_2" data-name="Слой 2"><g id="Слой_1-2" data-name="Слой 1"><path class="cls-1" d="M77.89,45H6.11C5,29.65,12.47,15.26,24.5,8L27,30.67A3,3,0,0,0,33,30L30,3.32A3,3,0,0,1,30.77,1a3.09,3.09,0,0,1,2.31-1H50.92a3.09,3.09,0,0,1,2.31,1A3,3,0,0,1,54,3.27L51,30a3,3,0,0,0,6,.67L59.5,8C71.53,15.26,79,29.65,77.89,45Z"/><path class="cls-1" d="M84,55.5A4.51,4.51,0,0,1,79.5,60H4.5a4.5,4.5,0,0,1,0-9h75A4.51,4.51,0,0,1,84,55.5Z"/></g></g></svg>